<svg width="512" height="512" viewBox="0 0 512 512" fill="none" xmlns="http://www.w3.org/2000/svg" role="img" aria-labelledby="title desc">
  <title id="title">Orkest OS app icon</title>
  <desc id="desc">Square app icon for Orkest OS with a minimal orbit symbol.</desc>
  <defs>
    <linearGradient id="frame-gradient" x1="86" y1="64" x2="432" y2="438" gradientUnits="userSpaceOnUse">
      <stop stop-color="#FCFDFF" stop-opacity="0.7"/>
      <stop offset="0.45" stop-color="#7850FF"/>
      <stop offset="1" stop-color="#3B9EFF"/>
    </linearGradient>
    <linearGradient id="orbit-gradient" x1="113" y1="123" x2="405" y2="396" gradientUnits="userSpaceOnUse">
      <stop stop-color="#FCFDFF"/>
      <stop offset="0.42" stop-color="#7850FF"/>
      <stop offset="1" stop-color="#3B9EFF"/>
    </linearGradient>
    <radialGradient id="glow" cx="0" cy="0" r="1" gradientUnits="userSpaceOnUse" gradientTransform="translate(256 256) rotate(90) scale(190)">
      <stop stop-color="#7850FF" stop-opacity="0.36"/>
      <stop offset="0.56" stop-color="#3B9EFF" stop-opacity="0.12"/>
      <stop offset="1" stop-color="#06060A" stop-opacity="0"/>
    </radialGradient>
  </defs>
  <rect x="16" y="16" width="480" height="480" rx="104" fill="#06060A"/>
  <rect x="17.5" y="17.5" width="477" height="477" rx="102.5" stroke="url(#frame-gradient)" stroke-opacity="0.46" stroke-width="3"/>
  <circle cx="256" cy="256" r="184" fill="url(#glow)"/>
  <circle cx="256" cy="256" r="89" stroke="#FCFDFF" stroke-width="24"/>
  <path d="M122 291C156 200 242 130 330 137C380 141 414 168 421 204C428 249 389 300 320 331C247 364 162 350 122 291Z" stroke="url(#orbit-gradient)" stroke-width="19" stroke-linecap="round"/>
  <path d="M390 170C354 256 269 320 183 316C139 314 107 292 99 260C90 218 126 168 189 137" stroke="#FCFDFF" stroke-opacity="0.56" stroke-width="8" stroke-linecap="round"/>
  <circle cx="392" cy="171" r="18" fill="#3B9EFF"/>
  <circle cx="122" cy="291" r="15" fill="#11FF99"/>
  <circle cx="189" cy="137" r="13" fill="#7850FF"/>
</svg>
